<?xml version="1.0" standalone="no"?>
<!DOCTYPE svg PUBLIC "-//W3C//DTD SVG 20010904//EN"
 "http://www.w3.org/TR/2001/REC-SVG-20010904/DTD/svg10.dtd">
<svg version="1.0" xmlns="http://www.w3.org/2000/svg"
 width="1024.000000pt" height="1024.000000pt" viewBox="0 0 1024.000000 1024.000000"
 preserveAspectRatio="xMidYMid meet">
<metadata>
Created by potrace 1.16, written by Peter Selinger 2001-2019
</metadata>
<g transform="translate(0.000000,1024.000000) scale(0.100000,-0.100000)"
fill="#000000" stroke="none">
<path d="M3549 9722 c-112 -78 -171 -125 -251 -201 -58 -54 -58 -54 -58 -168
0 -123 -11 -162 -52 -184 -39 -21 -78 -13 -117 25 -36 35 -36 35 -109 26 -52
-5 -85 -4 -117 5 -53 16 -91 8 -157 -34 -107 -68 -176 -156 -163 -208 5 -21
-8 -39 -92 -127 -118 -122 -213 -262 -309 -452 -128 -254 -210 -489 -256 -733
-21 -114 -21 -114 10 -142 33 -30 110 -56 121 -42 4 4 20 40 35 79 38 101 143
304 208 405 92 141 98 131 38 -59 -47 -146 -78 -292 -87 -401 -6 -76 -5 -78
18 -84 40 -11 182 -7 219 6 33 12 36 17 72 127 41 125 147 347 202 422 35 46
35 46 85 33 28 -7 73 -16 101 -20 51 -7 51 -7 167 -239 63 -127 130 -256 149
-287 19 -31 34 -61 34 -66 0 -5 -22 -15 -48 -22 -167 -42 -221 -250 -110 -417
39 -57 132 -124 210 -149 29 -10 57 -21 61 -25 4 -4 -2 -54 -15 -111 -20 -92
-22 -133 -23 -359 0 -172 4 -282 14 -338 14 -83 14 -83 -105 -258 -65 -97
-122 -178 -127 -181 -4 -3 -31 5 -59 17 -32 14 -82 24 -129 27 -94 7 -118 -5
-148 -72 -21 -49 -157 -298 -334 -615 -242 -434 -415 -818 -478 -1063 -31
-120 -24 -254 20 -362 105 -258 403 -755 632 -1055 103 -136 321 -392 469
-552 218 -236 204 -204 159 -358 -55 -184 -112 -475 -121 -615 -2 -30 -7 -39
-18 -36 -46 14 -202 12 -260 -3 -81 -21 -113 -45 -138 -103 -30 -71 -63 -253
-68 -379 -5 -123 1 -138 53 -132 27 3 28 5 36 78 26 252 38 345 45 352 5 5 24
0 43 -9 50 -26 165 -29 209 -6 26 13 35 25 35 43 0 19 -5 24 -20 22 -88 -12
-136 -13 -172 -3 -91 25 -31 53 117 55 105 1 105 1 105 -104 0 -104 0 -104 67
-130 37 -15 70 -28 73 -31 2 -3 -2 -58 -11 -122 -9 -64 -14 -124 -10 -132 3
-9 18 -15 35 -15 33 0 33 -1 52 171 6 59 15 112 19 119 5 9 18 5 46 -13 52
-34 135 -48 215 -37 95 14 93 15 84 -22 -33 -146 -42 -210 -29 -215 33 -13 49
2 59 57 11 54 11 55 49 58 38 3 38 3 31 -57 -7 -61 -7 -61 23 -61 29 0 30 1
40 78 6 42 14 103 18 135 5 50 10 58 31 63 32 8 120 0 157 -15 29 -12 29 -12
22 -92 -4 -44 -9 -101 -13 -126 -6 -44 -6 -44 28 -41 33 3 34 5 45 61 7 32 15
61 18 64 3 4 97 -8 208 -26 112 -17 239 -37 283 -44 71 -11 80 -15 83 -34 3
-18 10 -23 35 -23 32 0 32 1 50 78 27 119 24 118 148 103 144 -16 359 -31 450
-31 97 0 104 -7 90 -85 -12 -65 -9 -75 24 -75 16 0 26 8 33 28 9 26 16 29 78
39 58 9 72 8 86 -5 16 -13 19 -13 35 7 16 18 30 21 107 24 89 2 89 2 90 -43 1
-35 5 -45 19 -48 29 -6 44 15 51 69 6 45 10 52 41 65 18 7 36 18 40 24 12 20
-6 49 -33 52 -31 3 -38 34 -11 51 22 14 121 -18 155 -50 28 -26 28 -30 7 -164
-5 -35 -4 -37 26 -41 40 -6 46 2 61 85 14 78 9 146 -13 181 -25 37 -100 68
-179 74 -70 5 -70 5 -63 61 11 79 7 597 -5 775 -9 129 -28 253 -69 449 -10 44
-8 53 22 115 18 37 78 144 134 237 221 375 334 585 448 835 83 181 143 342
239 635 87 270 125 414 161 620 32 181 30 259 -8 337 -14 29 -25 54 -23 55 2
2 65 25 142 52 302 105 357 135 362 193 6 75 -64 112 -400 213 -101 30 -227
65 -281 77 -98 22 -98 22 -113 78 -74 269 -224 581 -380 787 -55 74 -55 74
-48 214 4 77 11 142 15 145 16 10 9 23 -21 39 -16 8 -52 35 -79 59 -45 40 -56
45 -143 60 -119 20 -270 36 -350 36 -35 0 -85 7 -112 15 -27 8 -72 15 -100 15
-28 0 -87 7 -131 14 -44 8 -129 17 -188 21 -99 6 -111 10 -140 34 -18 16 -77
61 -132 101 -55 40 -118 89 -140 109 -22 20 -51 44 -64 53 -21 15 -26 31 -37
115 -14 109 -42 201 -77 249 -12 17 -45 50 -74 72 -44 35 -54 50 -68 99 -38
129 -88 185 -186 205 -56 11 -64 16 -86 53 -14 22 -39 55 -56 72 -65 69 -200
77 -356 23 -30 -11 -59 -20 -63 -20 -4 0 -30 44 -57 98 -27 53 -72 137 -100
186 -28 49 -51 96 -51 106 0 9 32 43 70 76 79 66 75 51 49 192 -15 80 -10 97
33 121 28 16 28 16 157 -59 87 -51 81 -52 259 44 144 78 291 183 317 227 42
71 17 267 -54 424 -78 172 -263 393 -367 440 -48 22 -186 56 -216 54 -7 0 -56
-31 -109 -67z m266 -37 c50 -15 72 -29 132 -87 169 -164 282 -413 282 -623 1
-55 -3 -64 -37 -83 -20 -11 -26 -11 -35 1 -7 8 -42 22 -79 31 -94 25 -201 98
-287 196 -83 94 -101 127 -137 250 -30 105 -35 214 -14 290 18 66 24 71 73 55
23 -7 69 -20 102 -30z m-222 -62 c-4 -16 -7 -64 -7 -108 0 -86 24 -181 74
-291 15 -34 25 -66 21 -70 -6 -9 -155 -112 -206 -144 -22 -13 -26 -13 -39 0
-37 37 -106 247 -120 367 -8 60 -11 56 161 194 107 86 128 95 116 52z m-814
-479 c-15 -18 -154 -114 -166 -114 -14 0 62 73 106 101 51 33 82 40 60 13z
m238 -8 c15 -25 78 -56 115 -56 48 0 87 15 120 47 27 26 27 26 42 -8 54 -126
78 -174 105 -213 17 -25 31 -47 31 -50 0 -3 -18 -6 -40 -6 -82 0 -154 -107
-155 -230 0 -66 0 -66 -66 -82 -43 -10 -92 -33 -135 -61 -68 -45 -204 -171
-299 -276 -55 -61 -44 -64 -119 34 -53 68 -115 90 -178 62 -69 -30 -237 -233
-322 -390 -25 -46 -70 -141 -100 -213 -50 -118 -74 -151 -90 -125 -7 10 40
220 79 356 67 230 244 607 348 742 88 115 255 265 401 361 76 51 144 92 151
92 7 0 20 -27 29 -60 10 -33 47 -118 83 -188 37 -70 84 -162 105 -204 37 -74
68 -101 68 -59 0 10 -49 114 -109 232 -111 220 -137 281 -126 299 9 15 53 12
62 -4z m657 -91 c23 -36 20 -42 -9 -15 -26 24 -32 40 -16 40 5 0 16 -11 25
-25z m-154 -96 c7 -11 9 -23 6 -26 -8 -9 -36 17 -36 33 0 21 18 17 30 -7z
m504 -91 c22 -9 30 -8 37 3 5 10 20 13 48 11 23 -2 41 -7 41 -11 0 -7 -29 -26
-165 -111 -194 -122 -174 -118 -241 -55 -59 55 -59 55 1 20 65 -39 78 -40 83
-6 3 16 8 20 23 16 20 -7 28 18 9 30 -5 3 -15 15 -21 26 -10 20 -10 20 28 1
44 -22 63 -19 56 8 -6 23 -4 24 30 11 18 -7 30 -6 43 4 18 13 18 15 -11 46
-23 25 -26 30 -10 25 11 -5 33 -13 49 -18z m-749 -516 c14 -10 255 -495 255
-513 0 -8 -16 -25 -36 -38 -20 -14 -62 -53 -93 -88 -57 -64 -57 -64 -118 64
-33 70 -91 203 -129 296 -38 93 -74 167 -81 167 -7 0 -13 -6 -13 -13 0 -20
187 -454 223 -517 17 -30 37 -60 45 -66 12 -8 12 -15 3 -32 -6 -12 -15 -22
-19 -22 -5 0 -73 131 -152 290 -79 160 -147 293 -152 296 -45 28 88 143 197
170 63 15 58 15 70 6z m-155 -454 c74 -149 145 -284 158 -299 24 -29 26 -59 5
-66 -7 -3 -57 86 -123 219 -62 123 -132 260 -157 306 -40 74 -49 112 -26 112
5 0 69 -122 143 -272z m-601 -60 c1 -15 -3 -30 -9 -33 -6 -4 -10 14 -9 47 0
39 3 48 9 33 5 -11 9 -32 9 -47z m1501 -31 c52 -79 55 -81 131 -96 82 -17 125
-71 164 -204 18 -61 31 -79 75 -102 39 -20 64 -59 90 -135 18 -54 24 -101 31
-274 7 -168 12 -213 24 -225 14 -14 17 -14 25 -1 5 8 12 40 16 70 3 30 9 60
13 67 4 7 31 -11 76 -49 39 -33 94 -76 123 -96 28 -19 52 -38 52 -42 0 -4 -39
-15 -87 -23 -49 -9 -115 -27 -148 -40 -83 -33 -101 -24 -107 52 -7 100 -72
198 -154 235 -63 28 -69 32 -72 55 -3 16 9 34 42 63 64 58 60 108 -4 58 -36
-28 -54 -25 -68 14 -7 18 -29 50 -49 71 -36 37 -142 95 -175 95 -55 0 10 67
109 112 66 29 73 38 49 57 -34 28 -159 -29 -243 -111 -36 -35 -51 -42 -102
-49 -72 -10 -150 -44 -214 -93 -57 -44 -68 -33 -42 44 38 114 184 291 293 355
38 22 52 36 52 53 1 87 -261 -101 -348 -250 -19 -31 -44 -83 -57 -115 -22 -53
-26 -58 -52 -54 -69 8 -123 61 -123 120 0 107 57 221 164 327 121 120 272 186
415 181 55 -2 55 -2 101 -70z m-1579 11 c6 -23 17 -50 25 -59 14 -15 13 -26
-9 -100 -14 -46 -29 -100 -34 -119 -9 -35 -9 -35 -96 -38 -66 -2 -87 0 -87 10
0 7 9 51 19 98 33 148 48 168 68 90 5 -20 16 -36 26 -38 15 -3 16 5 11 75 -5
78 -5 78 15 24 24 -64 37 -79 51 -65 7 7 7 33 0 80 -5 38 -10 75 -10 83 0 26
12 3 21 -41z m829 -508 c0 -5 15 -27 34 -48 19 -21 57 -87 85 -147 52 -109 52
-109 25 -172 -15 -35 -29 -63 -31 -63 -2 0 -37 15 -78 34 -124 57 -185 143
-185 258 0 60 21 103 63 128 34 21 87 27 87 10z m763 -104 c91 -27 144 -88
162 -187 7 -36 7 -36 -122 -42 -143 -6 -220 -26 -301 -81 -85 -57 -65 -98 30
-60 32 14 89 31 126 40 81 19 271 22 330 5 77 -22 152 -109 152 -176 0 -25 -2
-26 -31 -20 -53 12 -231 6 -287 -9 -29 -8 -65 -22 -79 -31 -21 -14 -23 -19
-12 -31 11 -11 28 -11 89 -3 87 13 277 6 334 -11 52 -16 121 -82 142 -135 23
-62 16 -175 -16 -237 -13 -27 -29 -48 -36 -48 -20 0 -35 36 -28 65 6 23 4 25
-32 25 -22 0 -70 -7 -108 -15 -70 -15 -81 -14 -81 8 0 7 -7 13 -16 15 -25 5
-73 -87 -120 -225 -47 -140 -104 -240 -177 -310 -64 -62 -124 -93 -180 -93
-35 0 -45 -5 -66 -32 -32 -44 -231 -372 -286 -473 -65 -120 -63 -118 -118 -92
-83 38 -179 106 -231 163 -28 31 -51 59 -51 63 0 5 49 77 108 162 60 85 139
206 177 269 38 63 77 128 88 144 19 28 20 36 9 125 -30 244 -25 445 19 699 34
201 86 315 191 423 62 63 116 95 193 116 58 15 159 10 228 -11z m-543 -67 c0
-6 -4 -7 -10 -4 -5 3 -10 11 -10 16 0 6 5 7 10 4 6 -3 10 -11 10 -16z m1740
-539 c76 -18 75 -17 36 -60 -24 -27 -36 -50 -36 -69 0 -16 20 -96 45 -177 106
-345 154 -572 172 -807 13 -160 28 -113 27 83 -1 232 -42 458 -136 757 -41
133 -41 133 -2 168 54 48 119 67 244 71 91 3 99 2 60 -7 -56 -14 -68 -23 -78
-63 -5 -18 -15 -31 -24 -31 -9 0 -20 -4 -24 -8 -9 -9 -6 -178 6 -317 5 -58 17
-265 26 -460 9 -195 20 -359 24 -364 16 -17 28 5 35 61 6 59 -27 744 -46 931
-9 97 -9 104 11 129 11 14 20 32 20 39 0 32 41 37 245 31 192 -6 267 -15 286
-34 5 -5 5 -51 0 -109 -27 -272 -37 -954 -15 -1030 5 -20 2 -21 -163 -28 -198
-8 -344 -23 -357 -36 -7 -7 -6 -14 1 -21 7 -7 59 -7 174 1 90 6 217 10 281 9
73 -1 122 2 130 9 10 8 32 7 82 -4 43 -9 73 -11 79 -5 18 18 -3 29 -84 41 -81
13 -81 13 -74 229 11 330 19 444 30 448 38 12 294 -512 329 -674 8 -33 8 -33
-38 -33 -37 0 -46 -3 -46 -18 0 -14 25 -23 136 -50 176 -43 466 -130 479 -143
7 -8 4 -10 -10 -5 -87 25 -665 66 -930 66 -560 0 -1137 -81 -1748 -246 -93
-25 -171 -43 -173 -41 -7 6 268 113 451 175 192 66 598 179 693 194 64 10 84
22 67 40 -13 13 -335 -61 -580 -132 -206 -60 -484 -159 -666 -238 -134 -58
-557 -268 -640 -318 -60 -36 -69 -39 -69 -25 0 5 35 85 79 177 96 208 107 246
85 309 -8 25 -29 69 -46 98 -17 29 -31 57 -31 62 0 6 36 71 80 145 44 74 93
160 109 190 29 55 29 55 93 62 75 8 121 35 199 116 29 30 54 53 56 51 11 -12
93 -189 172 -368 105 -240 105 -241 226 -241 154 0 318 93 379 214 17 34 36
69 42 78 14 21 -27 109 -124 269 -32 54 -97 167 -144 251 -84 151 -84 151 -49
190 42 47 72 113 82 181 4 28 12 52 18 54 17 6 101 -73 148 -141 63 -87 151
-269 199 -408 7 -19 37 -25 37 -7 0 23 -114 289 -157 367 -54 96 -124 178
-189 221 -44 29 -74 77 -101 162 -5 18 40 34 138 49 71 11 411 4 469 -10z
m-726 -597 c101 -200 218 -403 267 -466 17 -20 28 -41 25 -46 -3 -4 -26 -11
-50 -13 -60 -7 -159 -55 -227 -111 -55 -45 -55 -45 -203 249 -142 285 -147
296 -136 329 14 42 26 45 34 8 34 -138 225 -553 262 -567 25 -10 22 10 -8 54
-44 65 -109 207 -178 392 -34 89 -66 168 -72 175 -10 12 4 98 22 132 7 13 109
46 152 50 13 1 42 -47 112 -186z m-213 -403 c73 -146 138 -272 146 -281 12
-14 11 -22 -8 -53 -11 -20 -24 -36 -28 -36 -3 0 -26 46 -50 103 -24 56 -86
188 -136 292 -50 105 -89 197 -87 205 5 17 24 42 28 38 1 -2 62 -123 135 -268z
m-1296 -104 c53 -15 46 -32 -11 -28 -25 2 -58 -2 -75 -8 -33 -14 -62 0 -53 25
10 26 75 31 139 11z m-120 -206 c55 -110 159 -207 294 -276 80 -40 78 -34 37
-126 -23 -51 -23 -51 -107 -49 -99 3 -211 26 -238 49 -19 17 -17 20 40 122 60
106 65 123 38 128 -10 2 -33 -30 -67 -95 -78 -149 -68 -142 -138 -104 -83 45
-127 87 -120 114 5 21 158 302 194 357 16 25 16 25 27 -20 7 -25 24 -70 40
-100z m3438 -296 c149 -7 159 -8 166 -28 5 -12 19 -88 32 -171 21 -134 24
-183 24 -455 0 -706 -94 -1049 -368 -1337 -133 -140 -259 -235 -414 -313 -247
-123 -545 -176 -852 -152 -259 21 -458 72 -659 168 -257 122 -422 274 -548
502 -53 96 -53 96 -22 153 29 52 33 89 10 89 -5 0 -26 -15 -48 -34 -38 -33
-114 -76 -133 -76 -11 0 -73 106 -175 305 -78 150 -78 150 -46 218 21 43 38
67 49 67 19 0 91 -56 91 -72 0 -5 -11 -23 -25 -40 -57 -67 -57 -163 0 -215 38
-36 95 -46 95 -18 0 8 -6 15 -14 15 -8 0 -28 12 -45 26 -26 21 -31 33 -31 67
0 50 32 107 59 107 10 0 25 -10 34 -22 12 -18 18 -20 27 -11 16 15 2 53 -45
119 -40 56 -93 93 -147 102 -27 5 -48 16 -60 32 -18 25 -18 26 3 88 21 62 21
62 68 62 26 0 69 -7 95 -16 63 -22 158 -110 183 -169 20 -50 22 -50 107 -30
64 15 79 29 69 60 -3 11 -6 94 -6 185 0 161 24 349 51 396 19 34 797 294 882
294 8 0 0 -12 -20 -28 -55 -42 -80 -70 -80 -87 0 -24 24 -18 55 15 16 16 48
37 72 46 71 27 138 15 325 -60 180 -72 224 -81 242 -53 9 15 7 22 -11 37 -45
37 -268 115 -418 146 -28 6 -29 7 -8 14 40 16 416 59 728 84 62 5 495 -1 708
-10z m-3692 -29 c21 -19 66 -48 99 -65 60 -30 60 -30 20 -103 -23 -39 -64
-118 -93 -175 -52 -104 -52 -104 -87 -98 -43 7 -160 65 -173 87 -8 12 13 59
89 203 54 102 100 186 103 186 2 0 21 -16 42 -35z m738 -27 c13 -5 57 -11 97
-15 41 -3 74 -7 74 -8 0 -1 -29 -62 -64 -136 -136 -286 -160 -339 -221 -480
-35 -81 -71 -172 -81 -203 -14 -46 -23 -58 -43 -62 -14 -3 -69 -19 -123 -35
-121 -36 -121 -36 -113 1 5 23 3 30 -9 30 -18 0 -36 -30 -36 -59 0 -23 -4 -26
-144 -102 -137 -74 -249 -179 -191 -179 8 0 38 18 66 39 53 40 205 121 227
121 7 0 12 -11 12 -24 0 -13 9 -34 19 -48 19 -24 19 -24 -69 -114 -88 -89 -88
-89 -206 -107 -84 -12 -121 -14 -128 -7 -28 28 -5 427 25 445 4 3 56 12 116
20 165 22 442 73 498 91 59 20 73 30 58 45 -7 7 -26 6 -64 -5 -77 -21 -588
-101 -596 -92 -14 13 124 392 148 407 5 3 38 -1 72 -8 36 -8 114 -13 187 -12
102 2 125 -1 123 -12 -1 -8 -20 -65 -43 -128 -22 -63 -39 -122 -38 -130 6 -29
32 -17 40 19 17 64 81 235 94 249 8 8 51 22 96 32 46 9 101 24 122 33 37 15
38 18 24 33 -15 14 -24 14 -109 -11 -51 -14 -96 -23 -100 -19 -4 5 22 69 57
143 35 74 63 142 64 151 0 9 7 22 14 29 8 6 23 33 32 58 28 77 34 79 113 50z
m-359 -129 c40 -6 92 -8 116 -4 26 3 44 2 44 -3 0 -5 -31 -76 -69 -158 -65
-139 -72 -149 -103 -157 -43 -12 -295 -3 -331 12 -29 11 -29 11 48 158 42 81
85 159 96 174 19 27 19 27 73 8 30 -10 87 -24 126 -30z m3853 -193 c16 -32 26
-60 23 -63 -2 -3 -35 0 -73 7 -51 9 -78 10 -108 1 -56 -15 -56 -15 -53 31 3
41 3 41 83 64 44 12 85 21 90 20 6 -1 23 -28 38 -60z m-4335 -126 c7 0 22 -4
32 -10 17 -9 15 -15 -22 -102 -22 -51 -57 -145 -78 -208 -39 -115 -39 -115
-93 -113 -30 1 -72 9 -93 18 -55 22 -114 65 -114 82 0 16 115 259 165 349 35
62 35 62 112 23 43 -21 84 -39 91 -39z m1242 66 c0 -20 -9 -24 -120 -68 -52
-20 -119 -46 -147 -57 -117 -46 -16 21 137 91 113 51 130 56 130 34z m3049
-37 c28 -6 60 -18 71 -27 21 -17 21 -17 1 -112 -29 -141 -63 -274 -72 -284 -5
-5 -23 2 -44 18 -19 15 -52 33 -73 40 -37 13 -37 13 -37 187 0 173 0 173 25
180 38 11 74 10 129 -2z m-3071 -51 c-2 -6 -35 -22 -72 -34 -85 -29 -190 -71
-238 -95 -42 -21 -48 -23 -48 -10 0 5 17 16 38 24 20 9 96 41 167 71 134 57
160 65 153 44z m-23 -67 c-6 -5 -41 -21 -80 -36 -38 -15 -105 -46 -148 -68
-43 -22 -81 -37 -84 -33 -9 8 -9 8 87 56 129 65 256 110 225 81z m5 -70 c0
-14 -11 -23 -37 -31 -21 -7 -73 -28 -116 -48 -74 -34 -114 -37 -72 -5 28 21
196 103 212 103 7 0 13 -9 13 -19z m-10 -80 c0 -14 -19 -28 -67 -50 -69 -33
-98 -36 -98 -11 0 9 30 28 75 47 88 38 90 39 90 14z m4 -88 c8 -20 -9 -37 -53
-52 -65 -21 -72 20 -8 49 52 24 53 24 61 3z m3033 -86 c41 -29 44 -34 39 -66
-7 -45 -15 -50 -35 -22 -9 13 -37 46 -63 74 -26 27 -45 54 -42 58 7 12 49 -6
101 -44z m-4569 -6 c46 -35 101 -56 171 -66 53 -7 53 -7 47 -44 -22 -119 -27
-180 -24 -296 2 -130 2 -130 -119 -130 -154 0 -170 9 -195 111 -22 93 -22 154
3 281 19 102 48 173 70 173 6 0 27 -13 47 -29z m1542 -26 c0 -27 -26 -41 -46
-24 -21 17 -17 39 9 48 28 11 37 6 37 -24z m-536 -89 c14 -19 26 -40 26 -47 0
-31 -252 -429 -277 -436 -6 -3 -23 34 -41 89 -28 87 -29 94 -14 109 27 25 132
80 132 69 0 -6 -18 -42 -40 -81 -22 -39 -40 -78 -40 -86 0 -33 28 -2 82 93 32
54 67 111 78 126 24 32 26 66 5 74 -8 3 -36 -6 -61 -20 -26 -15 -49 -24 -52
-21 -3 3 19 31 49 62 29 32 62 68 74 80 28 32 48 29 79 -11z m3493 -18 c26
-49 28 -62 28 -164 0 -110 0 -111 -42 -196 -39 -78 -97 -148 -123 -148 -13 0
-15 -10 24 147 18 76 41 194 51 263 18 134 22 150 30 150 2 0 17 -24 32 -52z
m-3683 -20 c-24 -41 -99 -118 -115 -118 -22 0 -37 45 -22 69 6 9 34 26 64 37
64 26 83 29 73 12z m226 -264 c11 -25 20 -53 20 -61 0 -23 -107 -134 -154
-161 -23 -13 -56 -33 -74 -44 -56 -35 -49 1 20 94 35 47 84 115 110 151 27 37
50 67 53 67 3 0 15 -21 25 -46z m-370 -81 c7 -32 21 -80 32 -108 14 -37 17
-55 9 -71 -12 -26 -6 -34 27 -34 38 0 22 -20 -64 -83 -86 -63 -247 -147 -281
-147 -18 0 -28 17 -61 103 -46 118 -78 237 -70 258 4 10 34 19 89 28 46 7 91
17 101 22 12 6 24 5 37 -3 16 -10 27 -5 81 40 34 29 68 52 75 52 8 0 18 -22
25 -57z m474 -134 c103 -202 383 -701 441 -787 14 -20 25 -42 25 -49 0 -22
-52 -143 -61 -143 -12 0 -132 106 -217 192 -73 74 -73 74 -53 99 30 38 91 154
91 172 0 41 -32 12 -69 -61 -54 -108 -59 -111 -108 -59 -63 66 -153 177 -153
188 0 6 25 39 55 72 50 57 115 161 115 185 0 5 -7 12 -15 16 -10 4 -21 -7 -34
-33 -34 -66 -134 -192 -150 -189 -16 3 -192 288 -185 299 2 4 39 28 82 53 42
25 99 68 127 95 27 28 53 47 57 43 5 -5 28 -46 52 -93z m-1047 48 c113 2 113
2 123 -40 27 -113 54 -198 81 -256 16 -35 29 -69 29 -76 0 -15 -72 -34 -139
-37 -36 -2 -47 2 -60 21 -28 40 -201 375 -201 389 0 9 8 10 28 5 15 -5 78 -7
139 -6z m747 -274 c30 -54 71 -120 90 -148 20 -27 36 -55 36 -62 0 -23 -225
-177 -319 -218 -44 -19 -44 -19 -78 20 -59 68 -183 269 -172 279 2 2 47 23 99
48 52 25 136 75 185 111 50 36 93 66 97 66 4 1 32 -43 62 -96z m3523 74 c-33
-86 -173 -377 -182 -377 -15 0 -65 53 -65 69 0 7 20 39 44 70 25 32 65 99 90
149 45 89 51 95 105 101 7 0 11 -5 8 -12z m-3996 -238 c46 -86 99 -171 140
-225 27 -36 49 -69 49 -73 0 -5 -38 -21 -85 -37 -74 -25 -87 -26 -99 -14 -23
25 -196 313 -196 327 0 8 13 13 38 14 20 0 57 6 82 13 53 15 61 15 71 -5z
m1186 -89 c28 -36 61 -74 73 -85 12 -11 26 -28 31 -37 9 -16 5 -18 -31 -18
-41 0 -41 0 -90 106 -67 143 -67 142 17 34z m-434 -138 c42 -50 77 -96 77
-103 0 -19 -289 -301 -304 -297 -13 3 -228 256 -247 290 -7 13 5 24 75 63 46
26 126 80 178 121 107 83 77 93 221 -74z m3009 76 c38 -42 38 -42 -73 -257
-60 -119 -117 -223 -125 -231 -13 -13 -20 -10 -60 32 -45 48 -45 48 -4 120 61
108 119 232 126 270 6 32 68 108 88 108 5 0 27 -19 48 -42z m-198 -120 c-10
-36 -110 -223 -131 -247 -7 -9 -93 83 -93 99 0 8 45 46 100 84 55 38 103 73
106 77 11 19 25 8 18 -13z m-2233 -77 c13 -10 43 -56 67 -102 48 -94 81 -240
103 -454 11 -116 7 -480 -7 -634 -5 -51 -4 -63 7 -59 18 6 24 50 39 268 14
203 3 445 -30 613 -25 127 -25 135 -1 106 28 -34 36 -7 16 51 -15 45 -15 45 5
22 25 -30 53 -105 105 -282 28 -96 47 -145 56 -145 18 0 17 8 -25 160 -36 133
-79 253 -116 324 -26 52 -25 61 5 61 38 0 57 -26 128 -171 144 -294 176 -437
184 -809 3 -129 0 -307 -5 -395 -11 -170 -10 -176 38 -251 19 -29 19 -37 7
-225 -12 -175 -11 -201 4 -264 9 -38 20 -78 24 -87 9 -22 16 -23 -184 6 -167
24 -181 29 -181 72 0 26 -34 63 -76 80 -45 19 -186 18 -223 -1 -30 -15 -51
-59 -51 -106 0 -22 -5 -29 -20 -29 -18 0 -20 7 -20 78 0 122 -37 161 -174 185
-49 8 -80 7 -158 -7 -103 -19 -142 -39 -159 -83 -6 -16 -15 -23 -27 -21 -35 7
-27 191 23 483 26 151 43 220 52 211 3 -3 9 -24 13 -46 6 -34 4 -45 -12 -60
-16 -15 -18 -22 -8 -40 18 -34 127 -80 207 -87 61 -5 74 -3 123 22 89 45 270
175 291 208 54 91 84 352 76 682 -7 315 -41 505 -117 655 -17 33 -30 66 -30
75 0 20 22 19 51 -4z m-1044 -59 c28 -37 84 -106 123 -155 42 -50 70 -93 67
-101 -8 -21 -143 -98 -164 -94 -17 3 -261 323 -262 344 -1 11 141 71 169 72 8
1 38 -29 67 -66z m623 7 c31 -38 145 -143 219 -201 34 -26 34 -27 18 -52 -9
-14 -17 -30 -17 -36 0 -18 29 -11 40 10 15 28 27 25 74 -18 22 -20 54 -46 70
-58 27 -19 29 -27 37 -119 10 -105 5 -476 -6 -536 -7 -37 -7 -37 -104 -44 -53
-3 -106 -9 -118 -12 -30 -7 -41 21 -19 46 19 21 21 61 4 61 -7 0 -25 -22 -41
-49 -15 -28 -35 -52 -45 -55 -9 -3 -46 -2 -82 2 -65 7 -65 7 -73 175 -5 93 -6
171 -3 174 3 3 36 -23 73 -57 37 -34 96 -83 130 -109 35 -25 63 -51 63 -58 0
-37 27 -12 90 84 85 127 123 198 118 221 -4 19 -19 -1 -122 -161 -35 -54 -66
-100 -69 -104 -11 -10 -287 240 -287 260 0 5 34 43 76 85 86 85 184 203 184
221 0 23 -36 10 -54 -19 -24 -42 -185 -210 -201 -210 -8 0 -14 30 -19 98 -12
179 -28 317 -38 327 -20 22 -23 -20 -12 -157 24 -294 24 -290 11 -285 -15 5
-256 288 -257 302 0 6 38 43 85 84 47 40 118 109 157 152 40 44 75 79 79 79 4
0 22 -18 39 -41z m2390 -41 c1 -4 30 -178 36 -220 5 -30 0 -46 -31 -97 -20
-34 -40 -61 -44 -61 -5 0 -26 35 -49 78 -22 42 -48 91 -58 109 -18 31 -18 31
26 81 25 28 57 64 71 81 22 25 47 40 49 29z m-162 -94 c-24 -25 -48 -26 -48
-3 0 10 36 27 60 28 10 1 6 -8 -12 -25z m254 -5 c19 -25 19 -28 3 -59 -20 -39
-29 -31 -42 38 -9 45 -8 53 5 50 8 -2 24 -15 34 -29z m-2094 -34 c25 -52 45
-136 34 -147 -4 -3 -33 18 -65 48 -58 54 -58 54 -35 104 13 28 27 49 33 47 5
-2 20 -25 33 -52z m1737 -42 c48 -76 204 -396 244 -501 17 -45 38 -112 45
-150 19 -91 53 -374 66 -557 13 -171 17 -781 6 -792 -4 -5 -38 -8 -74 -8 -37
0 -78 -4 -91 -9 -24 -8 -24 -8 -16 65 33 317 17 701 -45 1070 -22 130 -25 169
-10 169 17 0 11 17 -8 22 -13 4 -22 22 -30 59 -35 155 -176 452 -269 564 -30
37 -52 70 -48 73 5 5 149 44 187 51 3 0 23 -25 43 -56z m-938 2 c115 -32 267
-55 361 -55 72 0 72 0 72 -32 0 -43 -8 -54 -53 -73 -110 -46 -352 14 -457 114
-39 37 -52 71 -27 71 6 0 53 -11 104 -25z m1432 -85 c0 -21 -101 -203 -115
-207 -7 -2 -13 18 -17 54 -3 32 -9 82 -13 112 -7 51 -6 53 14 47 18 -6 21 -3
20 21 -1 16 5 39 11 52 13 23 13 23 57 -20 24 -24 44 -50 43 -59z m-1638 40
c41 -96 158 -180 301 -215 52 -13 68 -22 77 -42 20 -43 8 -46 -123 -37 -67 4
-150 8 -185 9 -63 0 -63 0 -88 94 -13 51 -33 116 -43 145 -27 69 -26 84 8 89
15 2 28 5 29 6 1 0 12 -22 24 -49z m918 -96 c35 -47 60 -89 55 -93 -5 -4 -38
-15 -74 -25 -61 -16 -66 -16 -75 -1 -5 10 -22 36 -37 59 -15 22 -28 47 -28 53
0 17 69 93 84 93 7 0 40 -39 75 -86z m-2242 -1 c26 -32 88 -105 137 -162 90
-104 90 -104 60 -127 -38 -31 -142 -86 -153 -82 -12 4 -271 315 -271 325 0 4
30 24 66 43 36 19 70 40 76 47 19 23 36 14 85 -44z m2801 -128 c11 -87 8 -140
-8 -150 -4 -2 -24 33 -45 80 -37 84 -37 84 -5 130 18 26 36 43 40 38 4 -4 12
-48 18 -98z m-701 22 c8 -16 11 -33 6 -37 -11 -10 -108 -27 -236 -41 -92 -10
-110 -10 -118 2 -20 32 -10 39 54 39 78 0 150 21 208 59 48 33 59 30 86 -22z
m285 -122 c72 -137 128 -315 104 -333 -10 -8 -70 -21 -163 -36 -18 -3 -35 -1
-38 5 -4 5 -17 56 -30 112 -13 56 -37 146 -55 201 -17 54 -28 102 -23 106 11
12 114 39 138 37 14 -1 33 -28 67 -92z m-219 -62 c19 -60 44 -152 57 -207 25
-111 23 -116 -42 -116 -20 0 -95 -7 -167 -15 -73 -9 -136 -13 -141 -10 -6 4
-10 16 -10 29 0 25 -63 286 -80 330 -6 16 -7 33 -3 37 4 4 64 14 133 23 69 9
139 20 155 25 61 19 62 18 98 -96z m-746 -38 c28 -112 57 -299 50 -319 -4 -11
-16 -13 -49 -9 -24 3 -44 6 -45 7 0 0 -8 84 -17 186 -9 102 -19 195 -22 208
-6 22 -4 23 27 20 33 -3 33 -4 56 -93z m310 81 c1 -1 18 -60 38 -131 42 -155
60 -254 49 -265 -5 -4 -76 -9 -159 -11 -150 -4 -150 -4 -148 21 3 39 -37 267
-58 334 -10 34 -19 63 -19 65 0 3 293 -9 297 -13z m-1473 -143 c9 -110 7 -223
-3 -223 -5 0 -40 37 -78 81 -106 127 -103 112 -35 153 33 20 65 43 72 51 26
31 37 16 44 -62z m2255 -231 c14 -27 49 -270 61 -427 11 -150 14 -546 4 -582
-7 -27 -28 -31 -159 -35 -100 -3 -100 -3 -98 67 2 50 7 73 19 82 14 10 14 14
1 35 -11 18 -13 50 -8 153 6 130 6 130 66 137 137 16 145 18 145 38 0 26 -18
29 -90 14 -125 -26 -116 -37 -123 139 -4 83 -14 196 -22 251 -8 54 -12 102 -9
107 3 5 22 9 42 10 20 0 62 7 92 14 30 7 58 13 62 14 4 0 12 -7 17 -17z m-259
-44 c15 -39 30 -171 36 -337 7 -158 7 -158 -17 -164 -31 -8 -359 -31 -364 -26
-2 3 -6 81 -9 174 -3 94 -10 204 -15 245 -6 48 -6 78 0 85 5 5 76 17 157 26
203 23 201 23 212 -3z m-419 -45 c6 -16 13 -131 16 -256 6 -229 6 -229 -203
-226 -179 3 -209 1 -209 -11 0 -8 11 -17 25 -19 14 -1 28 -8 32 -15 13 -19 9
-180 -7 -298 -21 -149 -21 -150 -53 -146 -27 3 -27 3 -23 214 4 211 4 211 -22
255 -26 44 -26 44 -19 279 7 235 7 235 202 238 107 1 196 5 199 7 2 3 15 5 28
5 16 0 27 -8 34 -27z m-1439 -50 c16 -14 23 -15 39 -5 27 17 41 6 35 -26 -5
-22 -56 -360 -56 -369 0 -10 -56 0 -94 17 -43 18 -46 22 -46 57 1 61 19 245
25 251 3 3 21 -9 39 -27 57 -55 73 -24 31 59 -18 35 -21 50 -12 53 19 8 19 8
39 -10z m362 -20 c-9 -55 -44 -196 -52 -209 -10 -17 -127 -102 -180 -130 -61
-32 -76 -32 -67 4 13 52 33 178 40 252 11 122 -5 112 198 118 68 2 68 2 61
-35z m1536 -473 c0 -37 -2 -39 -37 -46 -65 -11 -155 -34 -250 -65 -50 -16 -97
-29 -102 -29 -6 0 -11 13 -11 30 0 32 11 37 144 64 57 12 79 27 57 40 -5 3
-48 -3 -96 -14 -108 -25 -107 -25 -103 8 3 27 3 27 103 35 55 4 141 11 190 15
50 4 93 6 98 4 4 -2 7 -21 7 -42z m-442 -22 c3 -36 2 -37 -40 -48 -79 -21
-168 -69 -168 -91 0 -22 22 -25 40 -5 6 8 43 27 81 42 57 22 72 25 79 14 13
-22 -4 -54 -38 -69 -20 -9 -32 -22 -32 -34 0 -17 5 -18 36 -12 37 6 37 6 29
-97 -4 -57 -9 -106 -12 -110 -2 -5 -74 -8 -159 -8 -178 0 -165 -14 -138 145 8
50 14 137 13 195 -1 58 -1 108 0 112 0 5 70 7 154 5 152 -2 152 -2 155 -39z
m437 -113 c0 -58 14 -55 -158 -34 -105 13 -138 9 -141 -16 0 -6 44 -13 99 -17
55 -3 120 -13 145 -20 41 -13 45 -17 48 -48 1 -19 -1 -60 -5 -90 -8 -55 -8
-55 -203 -67 -107 -6 -196 -10 -198 -8 -5 5 15 232 22 243 13 21 327 113 371
109 17 -2 20 -9 20 -52z m-1796 -286 c69 -24 14 -59 -94 -59 -108 0 -166 37
-92 59 45 13 148 13 186 0z m2073 -125 c-1 -54 -6 -102 -10 -105 -4 -4 -33
-10 -65 -14 -57 -7 -57 -7 -68 23 -11 33 -59 62 -102 62 -14 0 -28 3 -31 8 -5
9 11 103 20 111 5 6 227 19 249 16 6 -1 9 -41 7 -101z m-309 51 c-6 -83 4 -79
-171 -71 -86 3 -174 9 -195 12 -36 7 -38 8 -31 38 3 17 7 32 8 33 4 4 308 21
351 19 38 -1 40 -2 38 -31z m-805 -17 c-4 -55 22 -60 36 -8 5 19 11 37 12 39
7 8 309 0 318 -9 5 -5 6 -19 2 -33 -5 -23 -8 -24 -79 -19 -83 5 -87 2 -117
-75 -21 -54 -12 -52 -145 -30 -61 10 -79 17 -75 28 3 8 6 41 7 74 0 33 2 63 2
68 1 4 10 7 22 7 18 0 20 -5 17 -42z"/>
<path d="M3246 7981 c-10 -16 95 -271 112 -271 21 0 18 15 -13 83 -18 40 -41
98 -51 129 -16 53 -37 78 -48 59z"/>
<path d="M3663 5320 c-24 -41 -30 -70 -14 -70 10 0 61 86 61 101 0 23 -27 5
-47 -31z"/>
<path d="M3736 5262 c-81 -133 -115 -232 -81 -232 8 0 15 5 15 12 0 21 88 194
115 226 30 36 32 52 6 52 -13 0 -31 -20 -55 -58z"/>
<path d="M3792 5117 c-19 -23 -89 -173 -107 -225 -13 -40 -14 -57 -6 -65 15
-15 25 -2 46 63 9 30 37 93 61 139 24 46 44 85 44 86 0 10 -30 12 -38 2z"/>
<path d="M3815 4886 c-41 -77 -62 -106 -77 -108 -30 -4 -34 -24 -8 -38 18 -9
25 -8 40 5 19 17 133 217 132 232 -1 4 -8 9 -16 11 -9 2 -33 -32 -71 -102z"/>
<path d="M4358 5835 c-18 -19 122 -396 154 -416 26 -16 28 5 5 44 -33 59 -66
145 -102 266 -27 96 -41 121 -57 106z"/>
<path d="M5700 4830 c0 -6 -13 -100 -30 -210 -16 -110 -30 -238 -30 -284 0
-117 10 -127 161 -170 157 -44 210 -79 244 -158 51 -123 -23 -295 -157 -364
-113 -58 -344 -47 -441 21 -28 20 -37 19 -37 -3 0 -29 60 -79 125 -106 261
-106 506 -18 586 210 27 77 27 188 0 249 -51 115 -118 164 -287 205 -70 18
-125 37 -137 48 -30 31 -30 85 5 324 18 125 32 232 30 238 -5 13 -32 13 -32 0z"/>
<path d="M6250 4810 c-42 -8 -170 -52 -233 -81 -34 -15 -34 -52 0 -57 11 -2
70 15 130 38 59 23 132 44 161 47 46 5 56 3 77 -17 23 -21 55 -22 55 -1 0 17
-71 71 -95 71 -13 0 -29 2 -37 4 -7 2 -33 0 -58 -4z"/>
<path d="M5057 4545 c-40 -40 -68 -127 -74 -225 -9 -142 25 -220 96 -220 78 0
122 85 122 238 0 105 -13 161 -44 196 -34 39 -68 42 -100 11z"/>
<path d="M3942 4538 c-21 -27 -55 -206 -60 -320 -5 -130 7 -199 40 -235 28
-30 44 -29 74 4 32 35 51 101 65 229 12 113 6 174 -15 174 -19 0 -26 -23 -26
-85 0 -78 -19 -205 -36 -237 -52 -100 -72 88 -34 319 11 68 21 126 21 130 3
18 -2 33 -10 33 -5 0 -13 -6 -19 -12z"/>
<path d="M6135 4524 c-60 -64 -94 -252 -61 -337 38 -100 134 -80 172 37 18 54
24 176 11 237 -9 42 -51 89 -79 89 -10 0 -30 -12 -43 -26z"/>
<path d="M4259 3878 c-88 -83 -151 -188 -111 -188 4 0 27 29 51 65 23 36 62
82 87 102 43 37 56 63 31 63 -7 0 -33 -19 -58 -42z"/>
<path d="M4357 3848 c-73 -78 -100 -116 -93 -133 9 -25 21 -17 54 34 18 27 50
65 72 85 39 35 52 66 28 66 -7 0 -34 -24 -61 -52z"/>
<path d="M4635 3616 c-59 -28 -108 -76 -130 -129 -32 -78 11 -107 46 -31 25
53 46 65 66 38 108 -152 425 -285 755 -316 176 -16 398 10 398 47 0 22 -10 23
-79 14 -89 -13 -364 5 -492 31 -194 39 -369 110 -477 192 -77 60 -81 108 -9
124 45 9 60 23 46 40 -17 21 -68 17 -124 -10z"/>
<path d="M3900 1185 c0 -14 8 -29 21 -36 32 -16 45 3 24 35 -22 33 -45 34 -45
1z"/>
<path d="M3832 1128 c-19 -19 -14 -37 25 -84 38 -45 63 -56 63 -29 0 14 -65
125 -73 125 -2 0 -8 -5 -15 -12z"/>
<path d="M3305 994 c-21 -22 -16 -34 31 -66 44 -31 62 -34 70 -13 4 9 -10 30
-37 55 -24 22 -44 40 -45 40 -2 0 -10 -7 -19 -16z"/>
<path d="M3765 990 c-9 -14 42 -80 61 -80 21 0 17 26 -8 60 -22 31 -42 38 -53
20z"/>
<path d="M3267 843 c-4 -3 -7 -11 -7 -17 0 -14 82 -66 104 -66 26 0 18 28 -12
44 -16 8 -34 22 -41 30 -14 17 -33 21 -44 9z"/>
<path d="M8571 8571 c-66 -23 -100 -61 -101 -114 0 -34 4 -40 34 -52 19 -8 52
-17 75 -21 55 -9 47 22 126 -504 30 -200 51 -368 47 -372 -5 -5 -58 -17 -118
-27 -60 -11 -183 -33 -274 -50 -91 -17 -255 -46 -365 -66 -182 -33 -528 -109
-615 -135 -19 -6 -51 -11 -70 -11 -40 -1 -80 -32 -80 -63 0 -12 8 -34 17 -51
13 -24 16 -66 19 -217 2 -160 5 -192 22 -231 13 -28 17 -50 11 -58 -14 -23
-11 -29 25 -44 28 -12 137 -16 549 -21 514 -7 514 -7 526 -123 14 -142 34
-856 26 -926 -3 -27 -1 -117 3 -200 5 -82 5 -492 0 -910 -6 -525 -4 -1012 4
-1575 7 -448 12 -1116 10 -1485 -3 -681 5 -983 28 -1010 16 -20 45 -19 65 1
14 15 16 43 14 228 -2 116 0 297 4 401 4 105 8 282 9 395 2 211 -11 1322 -17
1465 -34 828 -36 1221 -8 1435 13 101 17 247 20 775 2 391 -1 702 -7 780 -10
130 -10 130 15 151 26 20 26 20 5 39 -26 23 -25 40 2 59 43 30 45 24 51 -141
4 -87 11 -252 17 -368 7 -150 7 -311 -1 -565 -8 -243 -9 -489 -3 -780 5 -234
7 -598 4 -810 -5 -430 -5 -713 2 -1545 8 -966 35 -1481 76 -1440 3 3 7 321 9
707 4 640 3 730 -17 1008 -20 286 -21 377 -20 1485 1 649 5 1252 9 1340 10
199 7 433 -7 725 -6 124 -13 355 -15 513 -4 262 -3 287 12 281 9 -4 35 -10 59
-14 23 -4 46 -10 50 -14 10 -11 -28 -36 -55 -36 -27 0 -41 -26 -24 -43 6 -6
25 -16 43 -21 32 -11 32 -11 30 -126 -2 -63 -7 -234 -12 -380 -5 -146 -10
-427 -11 -625 -1 -198 -2 -387 -3 -419 -1 -59 14 -86 28 -49 6 14 24 1113 26
1496 0 87 0 87 38 86 20 0 55 -4 77 -8 40 -8 40 -8 12 -19 -16 -7 -32 -12 -36
-12 -4 0 -16 -9 -27 -21 -18 -20 -18 -21 1 -35 10 -8 35 -14 54 -14 20 0 41
-4 46 -8 6 -4 11 -68 12 -147 2 -77 7 -194 13 -260 6 -66 17 -203 25 -305 19
-235 38 -416 74 -705 45 -358 64 -599 77 -973 7 -187 13 -229 33 -206 10 11
-3 377 -24 684 -9 129 -31 357 -50 505 -50 397 -79 689 -105 1075 -5 80 -12
160 -14 178 -3 20 0 34 7 37 7 2 56 6 110 8 83 5 97 3 97 -10 0 -9 -8 -22 -17
-28 -16 -12 -17 -15 -1 -32 13 -14 17 -50 23 -173 14 -339 58 -792 118 -1220
15 -108 11 -1500 -5 -1740 -6 -91 -12 -559 -15 -1040 -2 -481 -5 -906 -6 -944
-2 -77 15 -102 28 -39 4 21 9 425 11 898 2 498 8 948 15 1070 7 125 12 520 13
980 1 746 0 775 -22 940 -45 342 -72 606 -87 855 -9 140 -19 286 -23 323 -4
38 -5 70 -2 72 3 1 39 4 80 6 75 4 75 4 81 -316 4 -176 12 -376 18 -445 9 -89
13 -772 16 -2383 3 -1432 8 -2264 14 -2276 7 -12 7 -21 0 -28 -6 -6 -6 -50 -1
-121 7 -85 13 -117 27 -132 22 -24 48 -26 70 -3 15 14 16 31 11 112 -3 53 -9
112 -12 131 -5 33 -12 1671 -7 1666 10 -10 131 -207 141 -230 18 -41 29 -23
37 64 6 75 6 75 -64 170 -39 52 -85 122 -101 154 -29 57 -30 64 -30 198 0 77
4 137 9 134 7 -4 141 -238 180 -313 12 -24 41 -32 41 -12 0 18 -86 173 -164
294 -71 110 -71 110 -74 269 -2 102 0 156 6 152 6 -3 28 -39 50 -80 63 -116
166 -275 179 -276 26 -1 20 19 -23 84 -25 37 -77 120 -116 184 -38 65 -76 124
-83 132 -9 10 -14 50 -15 125 -3 228 -2 232 44 149 46 -82 199 -294 213 -294
23 0 14 20 -46 103 -32 45 -95 138 -140 206 -81 124 -81 124 -81 298 0 97 4
173 9 173 5 0 37 -51 72 -112 34 -62 84 -153 111 -201 27 -49 53 -100 58 -113
11 -27 40 -33 40 -8 0 20 -167 325 -235 429 -53 80 -53 80 -46 195 6 115 6
115 113 -70 58 -102 114 -202 124 -223 12 -24 24 -36 34 -34 8 2 14 8 13 13
-2 13 -160 293 -214 380 -75 121 -78 131 -70 204 7 65 7 65 143 -141 75 -114
141 -210 147 -214 6 -3 14 1 17 9 6 16 -108 200 -236 381 -67 94 -70 101 -69
154 0 31 4 76 7 101 7 45 7 45 56 -35 79 -130 116 -186 166 -255 26 -36 50
-73 53 -83 4 -10 13 -17 20 -14 8 2 11 23 9 68 -3 55 -10 74 -50 139 -132 217
-179 292 -225 364 -51 78 -51 78 -53 520 -1 242 -5 615 -9 828 -7 327 -6 388
6 392 8 3 88 15 179 26 91 12 169 25 173 29 5 5 7 21 5 37 -3 26 -7 30 -48 35
-48 6 -49 4 28 35 33 13 33 13 33 121 1 59 2 142 2 183 2 61 -1 75 -13 74 -31
-3 -270 -46 -385 -69 -66 -13 -200 -33 -298 -44 -177 -21 -538 -88 -727 -136
-145 -37 -221 -52 -475 -96 -355 -61 -436 -77 -485 -98 -105 -45 -170 -63
-170 -46 0 4 7 20 16 38 15 27 16 54 10 200 -4 92 -11 194 -16 225 -6 31 -6
59 -2 63 4 3 165 36 357 73 193 37 449 87 570 111 509 101 525 104 525 85 0
-17 25 -11 37 9 7 11 34 24 65 31 29 6 163 38 298 70 135 31 319 72 410 89 91
18 178 41 195 51 16 10 49 23 73 29 30 8 42 17 42 30 0 10 -2 20 -5 23 -3 3
-41 -6 -85 -18 -77 -22 -138 -35 -615 -125 -115 -22 -229 -44 -252 -49 -94
-22 -85 -39 -116 218 -15 125 -32 306 -37 402 -5 96 -11 197 -12 225 -3 49 -3
49 34 56 106 17 101 109 -7 138 -63 17 -192 13 -254 -8z m234 -35 c22 -6 40
-16 40 -21 0 -6 -49 -13 -110 -16 -73 -4 -121 -11 -142 -22 -18 -10 -37 -17
-43 -17 -20 0 -9 29 19 49 53 38 159 51 236 27z m-55 -236 c0 -13 -28 -25 -38
-16 -3 4 0 11 8 16 20 13 30 12 30 0z m12 -120 c3 -25 6 -101 6 -170 0 -125 0
-125 -14 -50 -50 277 -50 274 -16 268 12 -2 19 -18 24 -48z m-72 -1670 c0 -5
-4 -10 -10 -10 -5 0 -10 5 -10 10 0 6 5 10 10 10 6 0 10 -4 10 -10z m250 -101
c-64 -11 -120 -11 -120 1 0 6 33 9 83 9 74 -1 77 -2 37 -10z m490 -89 c0 -5
-6 -10 -14 -10 -8 0 -18 5 -21 10 -3 6 3 10 14 10 12 0 21 -4 21 -10z m-810
-86 c0 -16 -46 -41 -57 -31 -9 9 38 58 48 51 5 -3 9 -12 9 -20z m805 16 c7
-11 -35 -11 -80 0 -26 7 -23 8 22 9 28 0 55 -3 58 -9z m-187 -84 c2 -10 0 -22
-5 -26 -4 -4 -54 -11 -110 -15 -103 -7 -103 -7 -103 24 0 29 2 30 48 34 26 2
74 3 107 3 50 -1 60 -4 63 -20z m170 14 c15 0 22 -6 22 -20 0 -18 -7 -20 -85
-20 -77 0 -85 2 -85 19 0 26 16 31 75 26 28 -3 60 -5 73 -5z m-793 -49 c0 -18
-56 -34 -69 -21 -6 6 -4 15 4 25 16 19 65 16 65 -4z m-118 -53 c-3 -7 -5 -2
-5 12 0 14 2 19 5 13 2 -7 2 -19 0 -25z m931 -10 c-2 -16 -10 -23 -25 -22 -13
0 -50 1 -84 2 -43 1 -59 6 -57 15 6 15 47 24 116 26 50 1 53 0 50 -21z m-915
-333 c6 -172 5 -177 -8 -115 -17 78 -31 280 -21 306 16 40 24 -14 29 -191z
m174 -4182 c-3 -10 -5 -4 -5 12 0 17 2 24 5 18 2 -7 2 -21 0 -30z"/>
<path d="M6688 7848 c-149 -81 -362 -336 -485 -583 -47 -93 -77 -180 -68 -195
12 -19 35 -10 35 13 1 56 108 259 214 407 104 145 296 330 342 330 44 0 -8
-71 -218 -296 -162 -173 -244 -277 -281 -351 -21 -42 -15 -75 7 -39 44 73 144
194 272 326 213 221 266 286 285 352 6 23 4 33 -12 49 -24 24 -23 24 -91 -13z"/>
<path d="M5707 7792 c-45 -49 -73 -209 -63 -360 8 -141 37 -276 59 -280 20 -4
20 2 7 87 -9 52 -8 66 4 80 21 24 60 311 52 393 -9 101 -23 120 -59 80z m22
-139 c0 -89 -22 -299 -32 -309 -14 -14 -19 54 -14 179 5 125 20 207 39 207 4
0 8 -35 7 -77z"/>
<path d="M9685 7439 c-60 -16 -229 -54 -374 -85 -358 -76 -484 -112 -685 -195
-94 -40 -200 -82 -237 -94 -87 -30 -290 -68 -529 -100 -295 -39 -470 -80 -470
-112 0 -17 -4 -18 140 21 52 14 194 40 315 56 437 61 520 80 749 179 228 98
326 127 696 206 329 69 550 126 550 142 0 19 -30 15 -155 -18z"/>
<path d="M9080 7404 c-486 -127 -560 -142 -925 -189 -66 -8 -169 -27 -230 -41
-251 -60 -402 -98 -439 -110 -21 -8 -49 -14 -62 -14 -17 0 -24 -6 -24 -20 0
-11 6 -20 14 -20 13 0 127 37 171 55 19 8 19 7 4 -11 -28 -33 -30 -42 -13 -58
12 -13 39 -16 132 -16 161 0 264 14 384 50 200 61 292 121 242 157 -9 7 -16
14 -13 16 2 2 63 12 134 21 72 10 216 40 320 67 105 27 264 68 355 90 91 23
169 45 173 49 4 4 2 11 -5 17 -9 7 -74 -6 -218 -43z m-786 -220 c30 -11 16
-35 -31 -55 -91 -40 -238 -88 -298 -98 -33 -6 -126 -13 -207 -17 -127 -6 -148
-4 -148 8 0 19 116 72 188 87 65 13 242 15 242 2 0 -6 -10 -17 -22 -25 -15
-11 -18 -16 -7 -16 22 0 59 29 59 46 0 17 -39 34 -77 34 -56 0 -10 12 93 24
127 16 186 18 208 10z"/>
<path d="M9670 7299 c-271 -37 -370 -54 -475 -81 -118 -30 -145 -42 -145 -59
0 -14 33 -10 96 11 85 30 222 56 436 84 189 24 213 30 203 47 -7 10 -24 10
-115 -2z"/>
<path d="M6903 7111 c-70 -32 -154 -90 -215 -149 -58 -55 -68 -78 -46 -100 17
-17 28 -15 28 7 0 16 22 28 108 61 59 23 125 52 147 65 96 56 126 127 55 133
-19 1 -54 -7 -77 -17z m57 -34 c0 -23 -191 -129 -206 -114 -10 10 33 42 116
86 83 45 90 47 90 28z"/>
<path d="M9345 7090 c-71 -10 -220 -26 -330 -35 -110 -9 -285 -32 -390 -50
-104 -18 -230 -38 -280 -45 -142 -18 -190 -28 -360 -80 -246 -74 -306 -90
-402 -103 -68 -10 -89 -17 -91 -30 -3 -13 4 -17 27 -17 53 0 247 46 426 101
248 75 257 78 405 95 74 8 203 28 285 44 83 16 209 34 280 40 193 16 314 29
471 50 77 11 166 21 198 22 68 3 81 13 28 22 -57 9 -125 5 -267 -14z"/>
<path d="M7432 6733 c4 -22 43 -25 43 -3 0 8 -11 16 -23 18 -19 3 -23 0 -20
-15z"/>
<path d="M1930 6507 c-29 -10 -36 -17 -38 -45 -2 -18 2 -40 9 -48 32 -39 135
-72 354 -114 139 -27 248 -57 303 -83 36 -16 45 -18 52 -6 7 11 12 10 28 -4
29 -26 55 -20 34 8 -19 27 -112 93 -214 151 -220 126 -418 179 -528 141z m235
-53 c86 -22 365 -157 352 -170 -2 -3 -60 9 -128 25 -68 17 -178 42 -243 56
-136 29 -206 58 -206 85 0 10 6 21 13 24 19 9 145 -3 212 -20z"/>
<path d="M2137 5720 c-137 -24 -324 -105 -373 -163 -16 -19 -24 -39 -22 -56 7
-57 97 -38 346 75 207 94 206 94 195 105 -11 11 -81 -13 -228 -79 -103 -46
-229 -92 -252 -92 -28 0 -11 29 35 58 114 74 263 120 417 130 58 4 99 11 98
17 -4 13 -152 16 -216 5z"/>
<path d="M8956 5608 c-6 -17 -23 -365 -37 -744 -16 -421 1 -614 85 -964 19
-80 46 -212 60 -295 15 -82 46 -233 71 -335 104 -432 127 -1025 54 -1415 -23
-125 -88 -327 -106 -333 -15 -4 -67 77 -90 141 -17 46 -43 64 -43 30 0 -24 56
-140 86 -180 50 -66 84 -34 135 130 65 210 90 412 92 735 1 350 -30 650 -94
897 -21 82 -52 227 -69 320 -17 94 -43 217 -56 275 -110 462 -116 585 -72
1445 15 305 15 297 1 302 -7 3 -15 -1 -17 -9z"/>
<path d="M8901 3578 c-39 -86 -72 -257 -92 -472 -13 -144 -6 -706 11 -861 5
-49 16 -173 25 -275 8 -102 17 -196 20 -210 26 -135 81 -917 71 -1007 -6 -53
7 -80 25 -52 27 43 -15 689 -76 1173 -15 111 -14 155 1 110 36 -108 91 -164
147 -150 39 9 94 72 119 135 19 49 22 75 21 201 0 137 -24 403 -58 640 -45
310 -120 420 -190 277 -36 -75 -55 -173 -62 -323 -8 -176 10 -185 25 -14 18
201 61 360 97 360 61 0 148 -535 149 -920 1 -183 1 -186 -26 -237 -63 -119
-138 -109 -189 26 -97 254 -120 978 -44 1381 24 127 46 204 63 217 15 13 10
43 -7 43 -6 0 -19 -19 -30 -42z"/>
<path d="M8928 2773 c-17 -38 -16 -363 1 -468 14 -88 58 -226 74 -237 6 -4 15
-4 19 -2 12 8 10 420 -3 532 -19 168 -60 247 -91 175z m51 -107 c6 -41 13
-132 16 -202 3 -71 8 -166 10 -211 5 -89 -7 -111 -24 -45 -29 106 -55 505 -34
525 15 16 21 3 32 -67z"/>
<path d="M7965 2406 c-3 -9 -7 -22 -9 -30 -7 -23 -445 -11 -464 12 -11 14 -16
13 -45 -14 -75 -70 -117 -91 -117 -58 0 9 -7 14 -17 12 -11 -2 -17 -12 -16
-23 4 -30 14 -673 21 -1300 6 -488 9 -560 22 -560 13 0 15 90 13 755 -2 415
-5 821 -9 903 -5 133 -4 147 11 147 10 0 35 14 56 31 21 17 43 28 48 25 6 -4
7 -364 4 -934 -4 -511 -3 -940 1 -955 3 -15 13 -27 21 -27 12 0 14 108 16 728
1 400 3 836 3 970 1 242 1 242 217 241 119 0 221 -4 227 -8 7 -4 10 -65 9
-176 -5 -476 6 -1691 15 -1702 6 -7 14 -10 20 -7 5 3 8 190 8 457 -2 452 -2
452 65 460 37 5 73 6 80 3 17 -6 9 -129 -11 -170 -13 -26 -13 -31 1 -38 12 -7
15 -30 15 -108 0 -92 9 -126 26 -99 4 7 6 71 6 143 -1 72 2 163 6 201 7 70 7
70 71 70 45 1 66 5 69 14 7 20 -18 31 -70 31 -41 0 -46 2 -41 20 7 27 -11 25
-34 -4 -16 -21 -29 -24 -100 -29 -83 -5 -83 -5 -84 31 -1 21 -2 232 -4 470 -3
392 -1 433 14 442 15 9 15 11 -1 24 -10 7 -18 23 -18 34 0 26 -18 39 -25 18z"/>
<path d="M7619 2213 c-1 -4 0 -60 0 -123 2 -138 -22 -510 -46 -710 -21 -183
-25 -586 -5 -675 23 -102 54 -200 66 -207 21 -14 27 9 12 48 -71 182 -82 461
-37 859 39 339 52 803 24 813 -7 2 -13 0 -14 -5z"/>
<path d="M869 2143 c-31 -29 -65 -53 -77 -53 -24 0 -82 -54 -82 -77 0 -11 6
-14 24 -9 22 5 25 2 32 -37 9 -45 8 -646 0 -655 -3 -2 -49 -7 -103 -10 -54 -2
-103 -8 -109 -13 -5 -4 -20 -6 -32 -2 -34 9 -40 -23 -8 -48 25 -20 26 -24 26
-124 0 -72 -4 -106 -12 -112 -7 -4 -56 -8 -108 -9 -86 -1 -95 -3 -95 -20 0
-17 8 -19 75 -18 124 1 221 11 233 23 14 14 0 28 -33 33 -25 3 -25 4 -27 103
-1 55 -4 109 -8 121 -6 19 -2 21 56 27 34 4 82 7 105 7 44 0 44 0 45 -402 2
-448 3 -496 19 -512 15 -15 31 12 25 44 -11 53 -13 633 -4 1005 6 260 6 427
-1 500 -10 110 -10 110 43 157 28 26 58 47 65 48 10 0 12 -126 8 -662 -5 -759
0 -1040 20 -1036 10 2 13 180 17 868 4 865 4 865 123 861 65 -2 122 -5 126 -7
3 -2 5 -136 4 -297 -3 -259 -7 -330 -40 -627 -36 -317 -37 -349 -34 -583 3
-172 8 -251 16 -259 25 -25 32 6 21 97 -17 132 -5 461 25 718 38 329 48 493
44 718 -2 112 -6 210 -9 218 -3 12 17 14 126 12 72 -2 132 -5 135 -8 3 -2 3
-239 2 -526 -3 -454 12 -1206 24 -1246 4 -11 7 -11 20 0 14 12 16 32 10 149
-3 74 -9 284 -12 466 -7 331 -7 331 97 342 142 15 426 25 432 15 6 -10 -11
-205 -19 -212 -3 -4 -48 -8 -100 -9 -90 -4 -96 -3 -101 17 -7 27 -29 27 -36 1
-4 -17 -14 -20 -65 -20 -34 0 -63 -4 -66 -8 -11 -18 13 -31 64 -34 55 -3 55
-3 58 -144 2 -135 2 -142 -18 -147 -26 -7 -26 -23 0 -37 15 -8 19 -17 14 -35
-8 -31 4 -65 22 -65 10 0 14 13 14 51 0 50 0 50 311 48 170 0 312 1 315 4 2 2
-3 10 -12 18 -12 10 -80 13 -302 15 -158 1 -293 3 -299 3 -10 1 -13 35 -13
134 0 72 4 138 8 144 5 9 47 13 127 15 120 3 120 3 128 118 4 63 12 119 17
124 17 17 11 44 -12 52 -30 10 -286 6 -408 -6 -182 -18 -161 -67 -159 385 2
390 3 394 23 397 27 4 27 32 1 36 -11 2 -26 11 -33 20 -12 16 -14 16 -28 -2
-12 -18 -25 -20 -112 -18 -82 2 -305 15 -432 25 -30 3 -42 -4 -91 -50z"/>
<path d="M7725 2058 c-10 -32 -35 -209 -37 -267 -4 -91 18 -94 27 -4 4 37 16
113 26 168 10 55 19 103 19 108 0 12 -30 8 -35 -5z"/>
<path d="M1356 2008 c-8 -26 -47 -477 -53 -608 -7 -159 10 -419 40 -615 14
-92 21 -190 21 -288 1 -125 3 -147 16 -145 25 5 25 213 1 383 -53 362 -57 651
-18 1030 14 131 23 243 21 247 -8 12 -24 10 -28 -4z"/>
<path d="M9267 1923 c-4 -3 -7 -22 -7 -42 0 -41 -60 -574 -90 -796 -24 -181
-26 -275 -6 -275 9 0 15 26 20 98 4 53 16 160 26 237 26 181 67 556 76 684 6
94 2 116 -19 94z"/>
<path d="M7781 1877 c-21 -54 -53 -242 -63 -364 -9 -99 -8 -228 2 -519 10
-293 11 -409 2 -482 -6 -53 -9 -98 -7 -100 2 -3 11 -2 19 1 23 9 30 155 20
487 -16 538 -8 714 37 881 33 121 33 119 15 119 -9 0 -20 -10 -25 -23z"/>
<path d="M7815 1559 c-11 -17 -18 -439 -8 -499 6 -38 13 -55 23 -55 12 0 14
11 10 55 -8 85 -6 346 3 433 7 65 6 77 -7 77 -8 0 -18 -5 -21 -11z"/>
<path d="M6637 1373 c-4 -3 -7 -18 -7 -33 0 -38 -19 -91 -43 -117 -33 -37 -17
-53 58 -53 65 0 65 0 65 -120 0 -120 0 -120 -182 -122 -155 -3 -183 -5 -183
-18 0 -13 32 -15 232 -14 127 1 239 4 248 8 31 12 -1 35 -40 29 -33 -5 -33 -5
-40 48 -3 30 -5 85 -3 124 3 69 3 69 43 77 65 14 65 13 65 -131 0 -114 8 -159
23 -134 11 18 12 292 1 303 -8 8 -40 8 -118 0 -59 -7 -110 -9 -113 -6 -3 3 2
31 12 62 15 50 20 55 39 48 24 -8 136 -13 384 -16 134 -2 172 0 172 10 0 27
-56 33 -295 30 -213 -3 -244 -1 -274 15 -39 20 -36 19 -44 10z"/>
<path d="M1095 1289 c-5 -6 -23 -102 -42 -213 -50 -289 -56 -516 -15 -516 4 0
7 64 7 143 1 118 7 179 38 361 24 137 35 222 29 228 -6 6 -13 5 -17 -3z"/>
<path d="M8160 901 c0 -24 16 -29 100 -33 99 -4 125 25 32 37 -140 18 -132 18
-132 -4z"/>
<path d="M2987 580 c-32 -38 -60 -158 -61 -260 -1 -65 1 -75 18 -78 29 -6 36
9 52 114 8 54 23 130 34 167 12 37 18 72 15 77 -11 18 -33 10 -58 -20z"/>
</g>
</svg>
