<?xml version="1.0" encoding="UTF-8"?>
<!-- Generator: visioncortex VTracer -->
<svg xmlns="http://www.w3.org/2000/svg" id="svg" version="1.1" style="display: block" width="125" height="125" viewBox="0 0 1024 1024">
  <g transform="translate(5.983698 0) scale(2.054598) translate(-266.627891 -265.943361)">
    <path d="M0 0 C2.39053491 1.52475207 2.39053491 1.52475207 6.2265625 1.20703125 C8.52523259 0.00555597 8.52523259 0.00555597 10.8515625 -1.60546875 C21.29778029 -8.03741944 31.94716707 -9.31003612 44.09375 -7.32421875 C50.26212655 -5.71006414 55.23872953 -2.70865071 60.2265625 1.20703125 C60.84402344 1.6865625 61.46148438 2.16609375 62.09765625 2.66015625 C70.04305034 9.66767531 74.78746995 20.8800291 76.2265625 31.20703125 C76.54121343 37.19241675 76.55730497 43.17153957 76.5625 49.1640625 C76.56893916 50.91607264 76.57566833 52.66808174 76.58267212 54.42008972 C76.59460332 58.08224986 76.59835722 61.74431596 76.59716797 65.40649414 C76.59696496 70.06979774 76.62426751 74.73249076 76.65871239 79.39564991 C76.68108774 83.01192425 76.68500228 86.62805405 76.68394852 90.24439049 C76.68628848 91.96217643 76.69502012 93.67996734 76.71061325 95.3976841 C76.82119519 108.83599093 75.66756531 121.70547526 66.2265625 132.20703125 C59.99855088 137.32368391 54.00310145 140.29868802 45.9140625 140.83203125 C44.31111328 140.94417969 44.31111328 140.94417969 42.67578125 141.05859375 C41.86753906 141.10757813 41.05929687 141.1565625 40.2265625 141.20703125 C38.99596725 123.94451454 38.99596725 123.94451454 41.8671875 119.890625 C43.9765625 118.51953125 43.9765625 118.51953125 46.0859375 117.6328125 C49.62877366 115.27307674 51.00740396 112.15565215 52.2265625 108.20703125 C52.82046029 102.66708894 52.79049843 97.15627039 52.7578125 91.58984375 C52.76051187 89.9661333 52.76439799 88.34242444 52.76940918 86.71871948 C52.77528671 83.3245293 52.7668004 79.93076188 52.74804688 76.53662109 C52.72529451 72.21042135 52.73836731 67.88521647 52.76233673 63.55905342 C52.77687358 60.20788237 52.77215227 56.85694247 52.76182556 53.50576401 C52.75917808 51.91194411 52.76235749 50.31810247 52.77174377 48.72430801 C52.81932937 38.37226628 52.30990715 29.21575023 45.7265625 20.70703125 C41.96175834 16.94222709 39.22342078 15.90712826 33.9140625 15.83203125 C28.41155317 15.96409147 25.51046413 16.7099687 21.2265625 20.20703125 C16.44578843 27.07848023 16.08129656 34.01315153 16.54931641 42.15100098 C16.79991785 46.51598792 16.93686362 50.88343668 17.08496094 55.25292969 C17.17883148 57.54272353 17.30157191 59.83152849 17.45410156 62.11816406 C18.64867443 80.64743555 18.64867443 80.64743555 14.58691406 86.61669922 C10.633768 90.81112155 6.12409769 94.00095286 1.20898438 96.9753418 C-1.00164584 98.2930255 -1.00164584 98.2930255 -3.6953125 100.56054688 C-5.7734375 102.20703125 -5.7734375 102.20703125 -7.7734375 102.20703125 C-7.77890594 100.8873082 -7.77890594 100.8873082 -7.78448486 99.54092407 C-7.82248707 91.21447928 -7.87947769 82.88842131 -7.95734024 74.56225014 C-7.99670476 70.28253358 -8.02894687 66.00301938 -8.04443359 61.72314453 C-8.05967342 57.58613046 -8.09424688 53.44967313 -8.14174652 49.31290817 C-8.15648532 47.74146767 -8.16447417 46.16994765 -8.16532135 44.59843826 C-8.16311143 31.90205726 -8.16311143 31.90205726 -12.7734375 20.20703125 C-16.82323015 16.51722017 -20.32886346 15.39477518 -25.7734375 15.20703125 C-31.41162605 15.82011583 -36.11817199 17.69489341 -39.7734375 22.20703125 C-43.43864496 28.76459092 -44.89283849 34.54715018 -44.93457031 42.03588867 C-44.93953522 42.71451965 -44.94450012 43.39315063 -44.94961548 44.09234619 C-44.96419141 46.3324079 -44.97103274 48.5723987 -44.9765625 50.8125 C-44.98231932 52.37705994 -44.98807698 53.94161988 -44.99383545 55.50617981 C-45.00433358 58.78708218 -45.01018348 62.06796015 -45.01367188 65.34887695 C-45.01914295 69.53384331 -45.04314605 73.71848209 -45.07164383 77.90334606 C-45.09035836 81.13689587 -45.09548055 84.3703683 -45.09700775 87.60396767 C-45.10001682 89.14560034 -45.10798571 90.68723223 -45.12119293 92.22881126 C-45.69392068 105.33102451 -45.69392068 105.33102451 -40.35675049 116.77604675 C-37.98933436 118.82224501 -35.37459809 120.47292419 -32.7734375 122.20703125 C-32.43286133 124.17822266 -32.43286133 124.17822266 -32.48046875 126.55859375 C-32.4949707 127.83476563 -32.4949707 127.83476563 -32.50976562 129.13671875 C-32.53490234 130.02617188 -32.56003906 130.915625 -32.5859375 131.83203125 C-32.60624023 133.1778125 -32.60624023 133.1778125 -32.62695312 134.55078125 C-32.66236825 136.77012914 -32.71175289 138.98828313 -32.7734375 141.20703125 C-38.62810073 140.9519261 -42.49794788 140.58248735 -46.7734375 136.20703125 C-48.07145789 134.72697142 -49.32141645 133.20356282 -50.5234375 131.64453125 C-53.48137252 127.85747808 -56.47276911 124.1075158 -59.5234375 120.39453125 C-60.94216347 118.66705377 -62.35891879 116.93795546 -63.7734375 115.20703125 C-64.50046875 114.33691406 -65.2275 113.46679688 -65.9765625 112.5703125 C-69.03400325 108.54911325 -68.91210872 105.22813096 -68.95043945 100.31152344 C-68.95701065 99.61341553 -68.96358185 98.91530762 -68.97035217 98.19604492 C-68.99007939 95.88199748 -69.001755 93.56801538 -69.01171875 91.25390625 C-69.01579428 90.45897011 -69.0198698 89.66403397 -69.02406883 88.84500885 C-69.04494087 84.62616741 -69.05922989 80.40735847 -69.06860352 76.18847656 C-69.07958726 71.8683378 -69.11388895 67.54872567 -69.15377522 63.22877121 C-69.18017953 59.87745335 -69.18831687 56.52625551 -69.19188499 53.17484283 C-69.19670075 51.58512115 -69.20816793 49.99540295 -69.22692299 48.40578461 C-69.40620642 32.18375647 -67.02431841 15.67294356 -55.3984375 3.33203125 C-39.63890824 -11.05111991 -17.46989395 -11.69401696 0 0 Z " transform="translate(625.7734375,458.79296875)" style="fill: #000000;"/>
    <path d="M0 0 C6.82805896 1.77718577 14.01223028 1.36849524 21.02246094 1.42114258 C22.60287461 1.43987681 24.18327852 1.45945187 25.76367188 1.47982788 C29.89978245 1.53091709 34.03592537 1.57066619 38.17218018 1.60797119 C43.14756155 1.65523725 48.12278534 1.71673461 53.09803772 1.77581787 C60.63528103 1.86374683 68.17249849 1.93371338 75.70996094 2.00708008 C76.03996094 23.45708008 76.36996094 44.90708008 76.70996094 67.00708008 C86.1230457 57.71908008 86.1230457 57.71908008 94.83886719 48.09692383 C97.84871057 44.73519897 101.08972287 41.60740433 104.29907227 38.4375 C107.72138397 35.04103739 110.9429513 31.53919819 114.06933594 27.86645508 C115.87143883 25.8240718 117.76935041 23.91806297 119.70996094 22.00708008 C122.33412735 19.41830705 124.84804231 16.7840428 127.27246094 14.00708008 C128.09315063 13.08572266 128.09315063 13.08572266 128.93041992 12.14575195 C130.73266702 10.08260023 130.73266702 10.08260023 132.01660156 7.8840332 C133.72520239 5.34830888 135.17749883 3.74832218 137.70996094 2.00708008 C143.05047358 1.01524375 148.25674975 1.24930839 153.64746094 1.50708008 C155.10895195 1.54725853 156.57054918 1.5837517 158.03222656 1.61645508 C161.59369783 1.70411445 165.15114638 1.84186415 168.70996094 2.00708008 C167.18392679 5.22338149 165.61195323 7.29477307 163.02246094 9.75708008 C159.67208596 12.95302896 156.64766583 16.34588955 153.61694336 19.83959961 C150.39986466 23.49613842 147.05434874 27.02978264 143.70996094 30.56958008 C143.03707031 31.2856543 142.36417969 32.00172852 141.67089844 32.73950195 C137.90951743 36.72961559 134.08747535 40.64398905 130.19726562 44.50830078 C128.50027327 46.21838549 126.898633 47.9870226 125.33496094 49.81958008 C121.19940521 54.61456383 116.95527968 59.3093124 112.70996094 64.00708008 C116.68170616 69.48164781 120.92594528 74.66089749 125.32177734 79.79589844 C128.79007697 83.8683196 132.11838405 88.03131212 135.39746094 92.25708008 C139.03048422 96.93320452 142.77826745 101.42929699 146.76074219 105.81567383 C149.714674 109.13662723 152.48852476 112.59886565 155.28808594 116.05004883 C157.91322339 119.25525698 160.58716446 122.41484235 163.27246094 125.56958008 C169.42800708 132.81875659 175.49377751 140.03950319 180.70996094 148.00708008 C152.55446416 150.25898682 152.55446416 150.25898682 146.54980469 145.46411133 C143.65678904 142.3329992 141.71818673 138.74854639 139.70996094 135.00708008 C138.41567906 133.30990891 137.08429004 131.64010643 135.70996094 130.00708008 C135.07960938 129.21172852 134.44925781 128.41637695 133.79980469 127.59692383 C130.87711204 123.97497014 127.86061867 120.43578082 124.84448242 116.89160156 C121.94692671 113.48238918 119.09251303 110.04355729 116.27246094 106.56958008 C112.7206219 102.21137758 109.10979782 97.90821041 105.45996094 93.63208008 C104.96439697 93.04885986 104.46883301 92.46563965 103.95825195 91.86474609 C101.0089335 88.42329578 97.9562401 85.1704251 94.70996094 82.00708008 C91.8934152 84.79469023 89.08242621 87.58783803 86.27246094 90.38208008 C85.47001953 91.17614258 84.66757812 91.97020508 83.84082031 92.78833008 C82.69516602 93.92915039 82.69516602 93.92915039 81.52636719 95.09301758 C80.46591187 96.14561768 80.46591187 96.14561768 79.3840332 97.21948242 C76.75809555 100.02349518 76.57467452 101.80666885 76.50463867 105.54858398 C76.48469345 106.48940826 76.46474823 107.43023254 76.44419861 108.39956665 C76.42748611 109.41731171 76.41077362 110.43505676 76.39355469 111.48364258 C76.36238304 113.0442189 76.36238304 113.0442189 76.33058167 114.63632202 C76.26506222 117.96817257 76.20619002 121.30010358 76.14746094 124.63208008 C76.104278 126.88729682 76.06066379 129.14250535 76.01660156 131.39770508 C75.90856475 136.93408205 75.80950892 142.47051784 75.70996094 148.00708008 C68.11996094 148.00708008 60.52996094 148.00708008 52.70996094 148.00708008 C52.37996094 107.74708008 52.04996094 67.48708008 51.70996094 26.00708008 C27.77062111 23.06080182 27.77062111 23.06080182 18.70996094 34.00708008 C16.41600753 35.72754513 14.09581669 37.41650957 11.70996094 39.00708008 C11.25556641 37.99387695 11.25556641 37.99387695 10.79199219 36.96020508 C7.92855793 30.86329274 5.901413 26.56274057 -0.70019531 24.11254883 C-12.16813905 20.5802286 -23.07528327 21.29308485 -34.06347656 26.26098633 C-41.0461554 30.10879884 -45.40533699 34.80933456 -48.66503906 42.06958008 C-49.97879762 48.24424531 -49.71993607 52.61724193 -46.29003906 58.00708008 C-42.96151871 61.21826855 -40.45857815 61.4002341 -35.91113281 61.35083008 C-28.53124915 61.19041858 -21.56563964 59.98680617 -14.35253906 58.50708008 C1.1777488 55.56106316 15.85111326 53.28409425 30.30761719 61.47973633 C38.9812539 67.60485875 43.06592252 76.00706655 45.24121094 86.21020508 C47.44242874 99.34413799 43.46324875 112.82160836 35.88964844 123.59692383 C24.85422787 137.98624673 9.80891671 147.34387037 -8.29003906 150.00708008 C-26.33470565 151.31627086 -44.43041878 148.74807694 -59.10253906 137.25708008 C-69.37471009 127.61126095 -72.91833705 116.72410018 -74.29003906 103.00708008 C-66.70003906 103.00708008 -59.11003906 103.00708008 -51.29003906 103.00708008 C-50.30003906 106.30708008 -49.31003906 109.60708008 -48.29003906 113.00708008 C-43.28216031 120.45782651 -36.48058247 124.09298823 -27.85253906 126.31958008 C-14.94733305 128.67835235 -2.35005938 126.08696041 8.70996094 119.00708008 C15.26756029 113.72928854 19.07093736 107.9241508 21.70996094 100.00708008 C22.20015284 94.43817859 22.42974156 89.58506067 20.08496094 84.44458008 C16.79924613 81.07239909 14.22035453 79.22111151 9.41625977 78.81152344 C2.00011224 78.73494028 -4.80761613 79.88965197 -12.04003906 81.44458008 C-27.89850206 84.65504478 -42.99353174 87.64360054 -57.89941406 79.60473633 C-64.56867879 75.14766235 -69.26341919 69.00631034 -71.66113281 61.35083008 C-74.19225 47.89346169 -73.14359206 34.85605465 -65.45800781 23.23754883 C-63.51843991 20.68588849 -61.48649113 18.33977823 -59.29003906 16.00708008 C-58.70738281 15.37157227 -58.12472656 14.73606445 -57.52441406 14.08129883 C-43.88427953 0.70803649 -18.24414918 -5.50600733 0 0 Z " transform="translate(393.2900390625,449.992919921875)" style="fill: #000000;"/>
    <path d="M0 0 C0.33 0 0.66 0 1 0 C2.2463431 5.65565526 3.49141264 11.3115889 4.73535156 16.96777344 C5.15786125 18.88809609 5.58070642 20.80834495 6.00390625 22.72851562 C6.61548715 25.5037082 7.22582273 28.27917229 7.8359375 31.0546875 C8.02247894 31.8998996 8.20902039 32.74511169 8.4012146 33.61593628 C8.76064034 35.25318618 9.11520524 36.8915119 9.46453857 38.53094482 C9.8388574 40.25695867 10.23420485 41.97848585 10.64532471 43.69610596 C10.84567322 44.57514587 11.04602173 45.45418579 11.25244141 46.35986328 C11.44029205 47.14966583 11.6281427 47.93946838 11.82168579 48.75320435 C12.09215058 52.16111625 10.65823003 54.27573124 8.98046875 57.14453125 C7.30955579 60.30661752 7.45709479 62.50127751 8 66 C9.67909933 70.19133956 11.41878488 74.44100336 14.66796875 77.64453125 C16 79 16 79 16 81.4375 C15 84 15 84 12.5625 85.875 C9.19472337 88.66779037 8.60231856 90.70848029 8 95 C9.53238999 98.7458422 11.59106978 100.86941861 15 103 C20.62994973 104.87664991 26.09029508 104.93749151 31.4375 102.3125 C36.30666262 97.91837763 37.35745783 94.23326768 38.08203125 87.890625 C37.85797978 79.99547802 34.9652719 72.94298941 31.9375 65.75 C31.2134088 64.01730742 30.49322128 62.28297725 29.77734375 60.546875 C29.46015381 59.79245117 29.14296387 59.03802734 28.81616211 58.26074219 C25.31629861 48.56623546 27.37547729 40.36612138 31 31 C33.47073668 26.11658572 36.07766636 21.82510817 40 18 C39.89300781 19.20914062 39.78601563 20.41828125 39.67578125 21.6640625 C38.35808729 38.51221502 41.53757525 50.94258844 48.74609375 66.140625 C54.22924701 77.76424787 59.07124165 89.31955544 54.5 102.1875 C50.58094359 110.75698602 44.65935076 116.47755223 36 120 C27.58160023 122.80613326 17.7707752 121.67176931 9.85546875 117.97265625 C9.24316406 117.65167969 8.63085938 117.33070313 8 117 C7.01 116.505 7.01 116.505 6 116 C6.28875 116.60328125 6.5775 117.2065625 6.875 117.828125 C7.24625 118.62734375 7.6175 119.4265625 8 120.25 C8.37125 121.03890625 8.7425 121.8278125 9.125 122.640625 C10 125 10 125 10 129 C9.34 129 8.68 129 8 129 C9.73559438 132.057952 11.38472619 134.63379989 14 137 C8.375 141.875 8.375 141.875 5 143 C5.00902344 143.78503906 5.01804687 144.57007813 5.02734375 145.37890625 C4.86506681 151.12915418 4.71878236 155.06572711 0.5 159.25 C-2.6952381 162 -2.6952381 162 -4 162 C-3.95166016 160.02966797 -3.95166016 160.02966797 -3.90234375 158.01953125 C-3.4375472 148.68948054 -3.4375472 148.68948054 -7.0703125 140.625 C-9.38384306 139.40658892 -11.45031615 138.56144554 -14 138 C-12.86695008 134.60085025 -11.87481525 133.94745549 -9 132 C-9.5878125 130.63875 -9.5878125 130.63875 -10.1875 129.25 C-10.5896875 127.64125 -10.5896875 127.64125 -11 126 C-9.625 123.9375 -9.625 123.9375 -8 122 C-7.74875174 119.33238236 -7.74875174 119.33238236 -8 117 C-9.11375 117.639375 -10.2275 118.27875 -11.375 118.9375 C-19.26988907 122.84324618 -27.72216986 122.78073299 -36 120 C-44.33363417 116.30171557 -50.66976908 110.84222181 -54.09375 102.2578125 C-58.60186555 87.18901886 -53.30735847 75.60196708 -46.9375 62 C-39.95852189 47.02396075 -37.84212311 34.45381127 -40 18 C-32.48234311 24.19101156 -27.72809053 34.87836455 -26.75 44.4453125 C-26.34611062 53.30563567 -29.06855773 60.61421279 -32.6015625 68.63671875 C-36.17108462 76.78525038 -38.34375858 83.96482326 -37 93 C-35.68796267 96.5563993 -35.68796267 96.5563993 -34 99 C-34 99.66 -34 100.32 -34 101 C-32.824375 101.4640625 -32.824375 101.4640625 -31.625 101.9375 C-29 103 -29 103 -27 104 C-21.20860134 104.73293635 -16.80160642 103.89899963 -11.62890625 101.265625 C-9.62375974 99.70766944 -8.89451502 98.36278462 -8 96 C-8.08593019 91.96128099 -8.6396072 90.39832889 -11.375 87.375 C-12.24125 86.59125 -13.1075 85.8075 -14 85 C-15.02057855 83.68235164 -16.02480717 82.35158304 -17 81 C-16.27683594 80.02160156 -16.27683594 80.02160156 -15.5390625 79.0234375 C-10.71853256 72.35339811 -7.38663907 67.51547872 -8.41796875 59.125 C-8.95618325 56.79730597 -8.95618325 56.79730597 -10.63671875 54.21484375 C-12.34848191 50.17822174 -11.73879996 47.61994813 -10.625 43.5625 C-10.23407753 41.99128252 -9.84490266 40.41962969 -9.45703125 38.84765625 C-9.22967285 37.95062988 -9.00231445 37.05360352 -8.76806641 36.12939453 C-7.85998407 32.42952186 -7.0243578 28.71511256 -6.19921875 24.99609375 C-6.0441687 24.29859512 -5.88911865 23.6010965 -5.72937012 22.88246155 C-5.41427361 21.46406891 -5.09935299 20.04563719 -4.78460693 18.62716675 C-4.02360851 15.19834496 -3.25983588 11.77021293 -2.48828125 8.34375 C-2.22571533 7.17005859 -1.96314941 5.99636719 -1.69262695 4.78710938 C-1 2 -1 2 0 0 Z " transform="translate(512,306)" style="fill: #000000;"/>
    <path d="M0 0 C40.21252618 -0.99462708 79.54189007 7.52752038 115.74804688 25.06201172 C116.45944824 25.40586914 117.17084961 25.74972656 117.90380859 26.10400391 C133.23731874 33.641386 147.52969462 43.2679684 160.74804688 54.06201172 C161.29493164 54.50593262 161.84181641 54.94985352 162.40527344 55.40722656 C176.12757081 66.62629216 188.92251229 79.00528144 199.74804688 93.06201172 C200.88886719 94.46 200.88886719 94.46 202.05273438 95.88623047 C220.03910547 118.326096 233.35765027 144.60596117 241.74804688 172.06201172 C242.14564209 173.33794189 242.14564209 173.33794189 242.55126953 174.63964844 C248.43155264 193.78335492 252.25309813 214.00582798 252.74804688 234.06201172 C252.76851074 234.86574219 252.78897461 235.66947266 252.81005859 236.49755859 C253.94561928 288.48934536 241.11303897 342.65392866 209.74804688 385.06201172 C209.06742188 386.01205078 208.38679688 386.96208984 207.68554688 387.94091797 C192.57517067 408.6367368 174.54756861 428.03170039 153.74804688 443.06201172 C152.7296875 443.84833984 151.71132813 444.63466797 150.66210938 445.44482422 C101.95084347 482.56601333 36.17099772 497.39974453 -24.12695312 489.87451172 C-27.85056121 489.34597091 -31.55076314 488.72863635 -35.25195312 488.06201172 C-36.17476074 487.90104004 -37.09756836 487.74006836 -38.04833984 487.57421875 C-81.90585217 479.68214091 -121.95862646 459.44092599 -155.25195312 430.06201172 C-155.75436523 429.62276367 -156.25677734 429.18351562 -156.77441406 428.73095703 C-202.06780534 388.97768128 -228.84985391 334.31562185 -237.25195312 275.06201172 C-237.35652832 274.32571533 -237.46110352 273.58941895 -237.56884766 272.83081055 C-238.62406211 264.05969435 -238.49579723 255.19558919 -238.50195312 246.37451172 C-238.50262787 245.50552246 -238.50330261 244.6365332 -238.5039978 243.74121094 C-238.48703907 229.96881888 -237.8266747 216.62238096 -235.25195312 203.06201172 C-235.00251953 201.68166748 -235.00251953 201.68166748 -234.74804688 200.2734375 C-223.15009894 137.29013693 -186.67616399 82.64918593 -135.25195312 45.06201172 C-134.66140137 44.6253418 -134.07084961 44.18867188 -133.46240234 43.73876953 C-95.27971872 15.80238192 -46.97117813 1.29343877 0 0 Z M-156.82226562 93.69091797 C-159.03475442 96.09769341 -161.15943035 98.55022896 -163.25195312 101.06201172 C-163.66864258 101.56104004 -164.08533203 102.06006836 -164.51464844 102.57421875 C-181.0382378 122.52666382 -194.69892315 145.56572043 -203.25195312 170.06201172 C-203.49606934 170.75617188 -203.74018555 171.45033203 -203.99169922 172.16552734 C-223.17126748 227.43568104 -219.93344851 288.02406316 -194.89892578 340.92089844 C-185.17550666 360.83923514 -173.3621892 378.32078167 -158.40820312 394.68310547 C-156.45579876 396.8371168 -154.56917953 399.03228898 -152.68945312 401.24951172 C-149.81216016 404.54915961 -146.7276573 407.41213025 -143.38476562 410.23388672 C-141.93156156 411.4794902 -140.51020728 412.7630023 -139.11914062 414.07763672 C-121.88895654 430.31489494 -100.08386429 443.08154601 -78.25195312 452.06201172 C-77.47899902 452.38121582 -76.70604492 452.70041992 -75.90966797 453.02929688 C-50.52440131 463.31025612 -24.57486717 468.06201172 2.74804688 468.06201172 C3.24304688 383.91201172 3.24304688 383.91201172 3.74804688 298.06201172 C10.49800271 305.93696019 10.49800271 305.93696019 10.46284485 311.77905273 C10.46964767 313.0911673 10.4764505 314.40328186 10.48345947 315.75515747 C10.46063444 317.1920865 10.43723899 318.62900656 10.41333008 320.06591797 C10.40999727 321.59251566 10.40933015 323.11912115 10.41111755 324.64572144 C10.40857444 328.77832921 10.3692327 332.90986249 10.32347894 337.04218674 C10.28213065 341.37367554 10.27577812 345.70521074 10.26591492 350.03686523 C10.24212489 358.24149581 10.1886086 366.4456397 10.12361926 374.65003681 C10.02961948 386.68395455 9.9801218 398.71807236 9.93082714 410.75224304 C9.9234787 412.53054816 9.91611551 414.30885321 9.90873718 416.0871582 C9.90518744 416.95564738 9.9016377 417.82413656 9.89798039 418.7189436 C9.87592095 423.8711289 9.84526645 429.0231737 9.80683768 434.17526245 C9.78339166 437.38338845 9.76377063 440.59153179 9.74469948 443.79968643 C9.73486819 445.2835435 9.72322101 446.76738985 9.70959091 448.25121689 C9.69106542 450.28243061 9.67946241 452.31370391 9.66816711 454.3449707 C9.65509506 456.04725075 9.65509506 456.04725075 9.64175892 457.78392029 C9.75482962 461.27120241 10.19478361 464.6193303 10.74804688 468.06201172 C30.76002256 468.90363686 50.45947916 465.13266009 69.74804688 460.06201172 C70.48877441 459.86833008 71.22950195 459.67464844 71.99267578 459.47509766 C105.68015748 450.29818976 136.77985756 430.02649383 161.74804688 406.06201172 C162.59133545 405.25957031 162.59133545 405.25957031 163.45166016 404.44091797 C172.04166286 396.22789854 179.79553273 387.70630139 186.74804688 378.06201172 C187.2245166 377.40281738 187.70098633 376.74362305 188.19189453 376.06445312 C209.9485054 345.57652362 224.22719008 310.2835355 228.74804688 273.06201172 C228.83424286 272.38152771 228.92043884 271.7010437 229.00924683 270.99993896 C229.64618393 265.70858909 229.9204348 260.49858381 229.95117188 255.17138672 C229.95818619 254.35279175 229.9652005 253.53419678 229.97242737 252.6907959 C229.98982854 250.06447785 229.99627934 247.43838529 229.99804688 244.81201172 C229.99872162 243.9146228 229.99939636 243.01723389 230.00009155 242.09265137 C229.98427796 228.86775578 229.61241112 216.02367547 226.74804688 203.06201172 C226.57112305 202.23975098 226.39419922 201.41749023 226.21191406 200.5703125 C224.91399651 194.67812547 223.40682485 188.86236064 221.74804688 183.06201172 C221.53841309 182.32450684 221.3287793 181.58700195 221.11279297 180.82714844 C211.77927675 148.81728334 194.440617 118.68850225 171.27148438 94.72607422 C168.74804687 92.06201172 168.74804687 92.06201172 166.63867188 89.41357422 C164.91518146 87.26989399 163.21945803 85.57834962 161.12304688 83.81201172 C158.90398254 81.92560419 156.72033524 80.03581438 154.60351562 78.03466797 C143.33884426 67.4224648 130.11038763 58.80239203 116.74804688 51.06201172 C115.64976562 50.41876953 114.55148437 49.77552734 113.41992188 49.11279297 C89.54376441 35.53707185 62.71736766 28.25258026 35.74804688 24.06201172 C34.67965576 23.88621582 33.61126465 23.71041992 32.51049805 23.52929688 C28.24782038 22.99988509 24.08155227 22.86437103 19.79101562 22.82373047 C18.93886978 22.81393661 18.08672394 22.80414276 17.20875549 22.79405212 C-50.29266589 22.17878435 -109.38096962 45.16813345 -156.82226562 93.69091797 Z " transform="translate(505.251953125,266.93798828125)" style="fill: #000000;"/>
  </g>
</svg>
